<svg width="20" height="25" viewBox="0 0 20 25" fill="none" xmlns="http://www.w3.org/2000/svg">
<path d="M14.8273 9.60426C14.8272 9.60456 14.827 9.60488 14.8269 9.60521L12.144 17.3308C12.1132 17.4196 12.1065 17.5148 12.1245 17.6067C12.1426 17.6987 12.1848 17.7841 12.2469 17.8545L17.5063 23.8032C17.9854 24.359 18.9078 24.0361 18.9325 23.3033L19.6582 1.81918C19.6634 1.67042 19.6265 1.52344 19.5519 1.39474C19.4772 1.26603 19.3677 1.16069 19.2356 1.09053C19.1035 1.02036 18.954 0.988148 18.804 0.9975C18.6539 1.00685 18.5092 1.0574 18.3861 1.14348L0.597038 13.5644C-0.00976631 13.9881 0.225372 14.9259 0.958666 15.014L8.88978 16.0701C8.98365 16.0828 9.07939 16.0707 9.16733 16.0351C9.25528 15.9994 9.33233 15.9415 9.3907 15.8672L14.4541 9.40539C14.4856 9.36583 14.5302 9.33845 14.5799 9.32809C14.6296 9.31772 14.6813 9.32503 14.726 9.34873C14.7706 9.37242 14.8052 9.41098 14.8238 9.45763C14.8423 9.50411 14.8437 9.55566 14.8278 9.60325C14.8277 9.6036 14.8275 9.60394 14.8273 9.60426Z" fill="#8BAA36"/>
</svg>
